<svg width="707" height="991" viewBox="0 0 707 991" fill="none" xmlns="http://www.w3.org/2000/svg">
<path d="M0 0V991L131 546.5L0 0Z" fill="#03BFEF"/>
<path d="M131 546.5L0 0L242 208V425.5L131 546.5Z" fill="#F03D94"/>
<path d="M131 546.5L242 653H527L363 546.5H131Z" fill="#212F71"/>
<path d="M0 0L177.5 50.5L355 101L515 0H0Z" fill="#61F7FF"/>
<path d="M0 991L131 546.5L242 653V756.75V860.5L0 991Z" fill="#1C3298"/>
<path d="M363 546.5L527 653L706.5 455L363 546.5Z" fill="#2652BB"/>
<path d="M355 101L515 0L706.5 183.5L355 101Z" fill="#F04093"/>
<path d="M242 208L0 0L177.5 50.5L355 101L461.5 208H242Z" fill="#173295"/>
<path d="M363 546.5L706.5 455L570.5 320.5C570.5 320.5 509.857 384.495 471 425.5C428.823 472.753 363 546.5 363 546.5Z" fill="#DCAE01"/>
<path d="M355 101L461.5 208L570.5 320.5L706.5 183.5L355 101Z" fill="#C1066E"/>
<path d="M706.5 455V183.5L570.5 320.5L706.5 455Z" fill="#D83381"/>
<path d="M131 546.5L242 425.5C242 425.5 381.57 425.5 471 425.5C428.823 472.753 363 546.5 363 546.5H131Z" fill="#F9D80A"/>
<path d="M461.5 208L570.5 320.5L471 425.5L461.5 208Z" fill="#DE375B"/>
</svg>
